<?xml version="1.0" standalone="no"?>
<!DOCTYPE svg PUBLIC "-//W3C//DTD SVG 20010904//EN"
 "http://www.w3.org/TR/2001/REC-SVG-20010904/DTD/svg10.dtd">
<svg version="1.0" xmlns="http://www.w3.org/2000/svg"
 width="808.000000pt" height="808.000000pt" viewBox="0 0 808.000000 808.000000"
 preserveAspectRatio="xMidYMid meet">

<g transform="translate(0.000000,808.000000) scale(0.100000,-0.100000)"
fill="white" stroke="none">
<path d="M3830 6299 c-103 -20 -217 -104 -274 -202 -121 -206 -35 -482 184
-590 61 -30 70 -32 180 -32 111 0 118 1 185 34 87 43 158 113 195 194 79 169
48 350 -81 480 -104 104 -242 145 -389 116z"/>
<path d="M2972 5282 c-41 -12 -94 -64 -118 -116 -40 -85 -28 -184 30 -261 35
-46 72 -64 145 -72 117 -12 205 37 255 142 32 69 33 100 2 167 -27 61 -75 110
-128 132 -38 16 -142 20 -186 8z"/>
<path d="M3862 5175 c-58 -26 -80 -117 -44 -184 13 -24 30 -37 61 -48 60 -20
107 -10 148 34 28 29 33 42 33 84 0 42 -5 55 -33 85 -28 31 -41 37 -83 40 -30
3 -62 -1 -82 -11z"/>
<path d="M4707 4820 c-94 -17 -173 -93 -203 -198 -35 -120 21 -253 134 -319
39 -23 57 -27 126 -27 68 0 89 4 132 27 94 48 154 144 154 247 0 175 -161 302
-343 270z"/>
<path d="M3380 4707 c-76 -15 -122 -75 -122 -157 0 -80 39 -132 116 -155 83
-25 156 7 196 86 26 50 25 95 -3 143 -41 72 -104 100 -187 83z"/>
<path d="M2545 4260 c-252 -33 -445 -255 -445 -510 0 -132 48 -252 141 -354
73 -79 185 -140 289 -156 113 -17 289 -13 362 10 159 49 291 182 339 343 l21
67 849 0 848 0 16 -33 c27 -58 74 -105 133 -134 54 -27 64 -28 197 -28 134 0
142 1 186 27 99 58 148 143 149 254 0 132 -79 241 -205 279 -67 21 -250 11
-316 -17 -58 -24 -122 -89 -149 -151 l-21 -47 -841 2 -841 3 -16 60 c-53 190
-201 337 -382 380 -68 16 -212 18 -314 5z"/>
<path d="M2560 2778 c-96 -27 -142 -103 -142 -232 0 -181 76 -252 264 -244
136 5 201 45 210 133 3 29 2 30 -45 33 -43 3 -50 0 -80 -32 -52 -55 -150 -61
-195 -13 -60 64 -55 206 9 251 36 25 139 22 173 -5 14 -11 26 -27 26 -35 0
-10 14 -14 53 -14 30 0 56 3 59 6 12 12 -13 69 -44 101 -54 56 -188 80 -288
51z"/>
<path d="M3273 2781 c-61 -16 -97 -45 -125 -100 -23 -46 -28 -67 -28 -131 0
-124 36 -196 117 -232 37 -16 62 -19 137 -16 114 4 158 24 201 93 28 45 30 55
30 144 0 81 -4 104 -23 144 -35 70 -89 98 -195 103 -45 2 -96 0 -114 -5z m160
-102 c38 -17 59 -64 60 -133 1 -108 -54 -165 -147 -153 -81 11 -122 75 -113
174 9 86 47 122 129 123 26 0 58 -5 71 -11z"/>
<path d="M5953 2781 c-95 -25 -143 -90 -151 -207 -8 -133 30 -218 116 -256 61
-28 229 -23 281 7 46 27 72 65 74 106 l2 34 -53 3 c-48 3 -53 1 -62 -23 -21
-55 -140 -71 -198 -28 -71 53 -62 227 13 261 63 29 176 6 188 -38 4 -17 13
-20 62 -20 l57 0 -7 28 c-22 90 -86 133 -208 138 -45 2 -96 0 -114 -5z"/>
<path d="M812 2738 l3 -43 72 -3 73 -3 2 -192 3 -192 55 0 55 0 3 193 2 192
75 0 75 0 0 45 0 45 -211 0 -210 0 3 -42z"/>
<path d="M1452 2543 l3 -238 55 0 55 0 0 235 0 235 -58 3 -57 3 2 -238z"/>
<path d="M1790 2540 l0 -240 55 0 55 0 0 70 0 70 88 0 c155 1 202 41 202 177
0 51 -5 76 -20 101 -32 52 -69 62 -235 62 l-145 0 0 -240z m270 130 c22 -22
27 -78 10 -111 -9 -16 -22 -19 -90 -19 l-80 0 0 68 c0 38 3 72 7 75 3 4 35 7
70 7 50 0 67 -4 83 -20z"/>
<path d="M3830 2540 l0 -241 58 3 57 3 5 159 5 160 95 -160 96 -159 72 -3 72
-3 0 241 0 241 -57 -3 -58 -3 -5 -154 -5 -155 -95 157 -95 157 -72 0 -73 0 0
-240z"/>
<path d="M4510 2540 l0 -240 55 0 55 0 1 143 c0 78 3 150 7 159 5 13 32 -24
102 -140 l95 -157 70 0 70 0 3 238 2 237 -60 0 -59 0 -3 -157 -3 -158 -95 158
-95 157 -72 0 -73 0 0 -240z"/>
<path d="M5190 2540 l0 -240 193 2 192 3 0 45 0 45 -135 5 -135 5 -3 42 -3 42
103 3 103 3 3 47 3 47 -103 3 -103 3 0 45 0 45 138 3 137 3 0 44 0 45 -195 0
-195 0 0 -240z"/>
<path d="M6500 2735 l0 -45 75 0 75 0 2 -192 3 -193 55 0 55 0 3 193 2 192 75
0 75 0 0 45 0 45 -210 0 -210 0 0 -45z"/>
<path d="M1453 2000 c-35 -14 -56 -55 -49 -94 9 -47 27 -59 104 -65 63 -6 67
-7 67 -31 0 -22 -5 -25 -42 -28 -33 -2 -46 2 -60 17 -16 20 -53 28 -66 15 -10
-11 15 -64 37 -76 11 -6 49 -12 84 -12 82 0 116 23 120 82 4 57 -22 82 -85 82
-27 0 -58 3 -70 6 -32 9 -30 42 3 54 39 15 52 12 76 -15 22 -26 52 -33 63 -14
13 20 -5 59 -35 74 -32 16 -112 19 -147 5z"/>
<path d="M1897 2004 c-4 -4 -7 -67 -7 -141 l0 -133 110 0 110 0 0 25 c0 23 -3
24 -77 27 l-78 3 -5 110 c-5 101 -7 110 -25 113 -12 2 -24 0 -28 -4z"/>
<path d="M2413 1995 c-43 -18 -63 -61 -63 -134 0 -52 4 -65 28 -91 47 -53 161
-61 212 -15 44 40 52 163 14 206 -41 47 -127 62 -191 34z m130 -62 c12 -11 17
-31 17 -65 0 -59 -24 -88 -74 -88 -60 0 -92 66 -66 135 17 45 82 55 123 18z"/>
<path d="M2933 1995 c-44 -19 -65 -56 -67 -118 -2 -104 42 -150 144 -150 90 0
129 30 130 101 l0 42 -60 0 c-57 0 -60 -1 -60 -25 0 -20 5 -25 25 -25 27 0 32
-9 13 -28 -16 -16 -80 -15 -102 1 -28 21 -34 105 -9 136 27 33 99 35 121 3 9
-14 25 -22 43 -22 33 0 37 15 13 49 -33 47 -126 65 -191 36z"/>
<path d="M3481 1992 c-5 -10 -28 -65 -49 -123 -22 -57 -43 -112 -47 -121 -6
-15 -2 -18 28 -18 29 0 36 4 41 25 6 23 11 25 61 25 49 0 57 -3 67 -25 9 -19
19 -25 44 -25 l32 0 -52 138 c-50 134 -52 137 -83 140 -23 2 -34 -2 -42 -16z
m56 -113 c14 -37 10 -49 -17 -49 -26 0 -31 13 -19 49 14 39 22 39 36 0z"/>
<path d="M3900 1870 l0 -140 30 0 30 0 0 85 c0 47 4 85 8 85 4 0 30 -38 57
-85 l50 -85 43 0 43 0 -3 138 -3 137 -27 3 -28 3 0 -85 c0 -47 -4 -87 -9 -90
-5 -3 -28 27 -51 67 -58 97 -67 107 -107 107 l-33 0 0 -140z"/>
<path d="M4665 1998 c-3 -8 -4 -70 -3 -139 l3 -124 33 -3 32 -3 0 55 0 56 65
0 65 0 0 -55 0 -55 35 0 36 0 -3 138 -3 137 -30 0 c-29 0 -30 -2 -35 -55 l-5
-55 -60 0 -60 0 -5 55 c-5 51 -7 55 -33 58 -16 2 -29 -2 -32 -10z"/>
<path d="M5167 2004 c-4 -4 -7 -67 -7 -141 l0 -133 115 0 115 0 0 25 c0 25 -1
25 -80 25 l-80 0 0 30 0 30 60 0 c57 0 60 1 60 25 0 22 -4 24 -57 27 -55 3
-58 5 -61 30 l-3 27 78 3 c76 3 78 4 78 28 0 25 0 25 -106 28 -58 1 -108 -1
-112 -4z"/>
<path d="M5628 2004 c-5 -4 -8 -67 -8 -141 l0 -133 35 0 c35 0 35 0 35 46 0
44 1 45 27 42 21 -2 34 -14 51 -45 21 -38 28 -43 59 -43 l35 0 -27 46 -27 46
20 19 c27 24 35 53 28 93 -11 56 -36 69 -134 74 -48 2 -90 1 -94 -4z m160 -91
c3 -27 -1 -33 -21 -38 -14 -4 -36 -5 -48 -3 -20 2 -25 10 -27 41 l-3 38 48 -3
c46 -3 48 -4 51 -35z"/>
<path d="M6107 2004 c-4 -4 -7 -67 -7 -141 l0 -133 110 0 110 0 0 25 c0 23 -3
24 -77 27 -76 3 -78 4 -78 28 0 23 4 25 58 28 53 3 57 5 57 27 0 23 -4 25 -47
25 -57 0 -76 10 -71 36 3 16 14 19 81 22 l78 3 -3 27 -3 27 -101 3 c-55 1
-103 0 -107 -4z"/>
</g>
</svg>
