<?xml version="1.0" standalone="no"?>
<!DOCTYPE svg PUBLIC "-//W3C//DTD SVG 20010904//EN"
 "http://www.w3.org/TR/2001/REC-SVG-20010904/DTD/svg10.dtd">
<svg version="1.0" xmlns="http://www.w3.org/2000/svg"
 width="1376.000000pt" height="808.000000pt" viewBox="0 0 1376.000000 808.000000"
 preserveAspectRatio="xMidYMid meet">

<g transform="translate(0.000000,808.000000) scale(0.100000,-0.100000)"
fill="#000000" stroke="none">
<path d="M4781 6993 c-45 -22 -91 -95 -91 -145 0 -125 122 -209 231 -160 52
23 72 44 94 97 23 53 13 111 -27 159 -53 64 -136 84 -207 49z"/>
<path d="M3774 6906 c-51 -14 -76 -32 -103 -76 -72 -118 46 -276 179 -240 56
15 107 63 121 112 34 126 -73 237 -197 204z"/>
<path d="M2833 6119 c-60 -11 -116 -43 -155 -89 -110 -128 -57 -340 101 -408
45 -19 134 -20 185 -3 53 18 125 86 149 141 24 54 26 148 4 201 -46 112 -166
178 -284 158z m134 -173 c76 -82 19 -206 -95 -206 -61 0 -112 48 -118 110 -6
55 9 86 56 118 52 35 113 26 157 -22z"/>
<path d="M3883 5940 c-58 -35 -80 -117 -49 -178 64 -123 240 -91 254 46 8 87
-49 152 -133 152 -22 0 -54 -9 -72 -20z"/>
<path d="M4599 5584 c-63 -19 -131 -81 -159 -146 -40 -94 -16 -211 59 -286 52
-50 105 -72 180 -72 80 0 134 24 190 85 127 138 65 367 -113 420 -60 18 -97
18 -157 -1z m157 -149 c49 -38 62 -93 34 -150 -50 -103 -199 -94 -231 15 -15
50 -5 86 36 127 28 28 40 33 81 33 35 0 56 -6 80 -25z"/>
<path d="M1390 5421 c-84 -18 -174 -91 -208 -170 -14 -33 -17 -97 -9 -197 2
-27 -32 -71 -291 -376 l-292 -345 -88 1 c-74 1 -94 -3 -136 -24 -89 -45 -136
-125 -136 -230 0 -74 20 -127 69 -182 65 -75 198 -102 293 -60 50 22 110 79
127 120 9 22 68 59 284 179 149 83 274 149 276 147 2 -2 -67 -183 -154 -403
l-158 -399 -56 -8 c-31 -5 -62 -9 -69 -9 -7 0 -41 49 -76 110 -84 145 -120
170 -171 119 -26 -27 -17 -62 45 -169 89 -154 86 -146 60 -201 -48 -99 -25
-219 59 -297 66 -62 140 -86 218 -69 78 16 139 55 174 110 71 113 61 235 -27
329 l-33 35 181 457 c99 251 183 459 187 463 3 4 114 -31 246 -78 555 -198
530 -190 559 -171 14 10 28 28 32 42 13 53 -7 64 -302 169 -154 54 -330 116
-392 139 l-114 40 6 93 c3 52 9 137 12 189 l6 95 46 20 c26 12 64 37 85 58
l37 36 58 -55 c31 -31 213 -203 403 -382 l347 -327 -10 -42 c-40 -182 143
-349 328 -299 124 34 212 173 186 296 l-10 45 330 246 c182 135 336 248 342
250 7 3 29 -2 49 -11 72 -30 198 -14 249 32 17 15 22 13 75 -29 32 -24 157
-120 278 -213 121 -92 224 -171 228 -175 4 -4 3 -27 -3 -52 l-12 -46 -121 -6
c-67 -4 -349 -18 -626 -31 -555 -27 -541 -25 -541 -90 0 -19 8 -39 20 -50 19
-18 40 -17 598 9 317 14 604 29 637 32 l60 5 35 -47 c19 -26 39 -53 44 -59 5
-7 -49 -128 -148 -330 -86 -176 -156 -326 -156 -335 0 -9 7 -26 16 -38 19 -27
74 -30 96 -4 8 9 86 162 173 338 l157 321 48 6 c66 8 120 37 167 91 124 141
58 369 -123 422 -67 19 -122 14 -186 -17 l-44 -21 -284 219 -284 218 -1 85 c0
101 -20 146 -89 207 -135 119 -351 62 -412 -109 -18 -52 -18 -124 0 -175 l14
-40 -321 -239 c-176 -132 -325 -241 -330 -243 -5 -2 -34 9 -64 25 -78 39 -158
39 -237 -1 l-56 -28 -57 54 c-780 735 -772 727 -779 777 -14 103 -69 183 -154
227 -51 26 -128 37 -180 26z m128 -151 c95 -58 95 -192 0 -250 -60 -36 -134
-23 -187 34 -34 36 -40 118 -12 164 28 43 77 72 126 72 22 0 54 -9 73 -20z
m2325 -204 c72 -30 102 -100 74 -169 -40 -94 -173 -103 -227 -14 -41 66 -17
146 53 178 51 22 59 23 100 5z m-2536 -166 c21 -11 44 -20 52 -20 12 0 13 -30
7 -192 -4 -106 -10 -196 -14 -200 -13 -12 -604 -339 -608 -335 -2 2 -14 23
-27 48 l-24 45 285 337 c157 185 287 337 289 337 2 0 20 -9 40 -20z m3565
-608 c24 -23 32 -41 36 -81 4 -49 3 -53 -36 -91 -36 -36 -44 -40 -92 -40 -46
0 -56 4 -85 33 -41 41 -52 90 -31 140 33 81 145 102 208 39z m-2045 -76 c64
-69 36 -177 -54 -207 -81 -26 -163 35 -163 122 0 117 138 171 217 85z m-2258
-42 c17 -14 36 -43 42 -64 10 -33 9 -44 -10 -83 -46 -95 -167 -103 -221 -14
-24 38 -25 78 -5 121 33 68 135 90 194 40z m438 -854 c41 -24 55 -51 55 -105
0 -75 -52 -125 -127 -125 -126 0 -173 167 -66 233 35 22 99 21 138 -3z"/>
<path d="M1815 5420 c-51 -20 -59 -80 -15 -111 21 -14 78 -21 345 -38 176 -12
524 -35 773 -51 248 -17 470 -30 492 -30 71 0 105 63 58 108 -22 20 -61 23
-778 71 -415 28 -777 53 -805 55 -27 2 -59 1 -70 -4z"/>
<path d="M5295 4482 c-108 -3 -120 -7 -135 -43 -11 -27 -11 -33 7 -57 20 -27
21 -27 162 -30 l141 -3 0 -515 0 -515 25 -24 c27 -28 52 -31 81 -11 18 14 19
34 24 538 l5 523 143 5 c127 4 145 7 158 24 19 27 18 59 -3 85 -17 20 -27 21
-273 24 -140 1 -291 1 -335 -1z"/>
<path d="M8003 4479 c-250 -24 -464 -205 -528 -445 -20 -76 -20 -231 0 -308
42 -161 165 -311 316 -385 188 -92 370 -93 554 -2 104 52 175 113 175 150 0
33 -30 64 -63 64 -13 0 -45 -17 -72 -37 -100 -77 -188 -106 -317 -106 -218 0
-402 135 -463 340 -18 64 -21 191 -5 252 31 114 133 239 241 293 176 90 399
66 548 -59 48 -41 82 -45 111 -16 49 49 -2 117 -141 190 -113 59 -228 81 -356
69z"/>
<path d="M13110 4330 c-18 -18 -20 -33 -20 -139 l0 -118 -75 -5 c-85 -6 -115
-24 -115 -70 0 -50 30 -68 115 -68 l75 0 0 -305 0 -306 25 -24 c29 -29 55 -32
84 -7 21 17 21 25 24 327 l2 310 79 5 c71 4 81 8 99 32 45 60 -9 108 -123 108
l-60 0 0 123 c0 107 -2 126 -18 140 -25 23 -68 21 -92 -3z"/>
<path d="M6096 4319 c-20 -15 -26 -29 -26 -58 0 -48 23 -79 64 -87 58 -10 105
27 106 84 0 71 -85 107 -144 61z"/>
<path d="M9713 4069 c-12 -4 -26 -17 -32 -28 -7 -13 -11 -141 -11 -369 0 -338
1 -350 21 -376 25 -31 61 -34 89 -6 19 19 20 33 20 263 0 232 1 245 23 287 28
56 63 81 120 87 37 5 54 1 90 -20 74 -44 77 -58 77 -341 l0 -247 25 -24 c29
-30 58 -32 86 -4 20 20 20 29 17 297 -3 262 -4 279 -25 317 -71 132 -240 195
-364 136 l-43 -21 -21 24 c-25 29 -44 36 -72 25z"/>
<path d="M10520 4072 c-8 -3 -23 -11 -32 -20 -17 -14 -18 -45 -18 -379 0 -350
1 -364 20 -383 23 -23 58 -26 86 -6 18 13 19 32 24 279 5 248 6 267 26 293 33
45 70 67 121 71 40 4 55 0 89 -23 71 -46 74 -61 74 -343 0 -246 0 -248 23
-269 29 -27 61 -28 87 -2 19 19 20 33 20 278 0 297 -5 322 -76 401 -80 89
-197 117 -311 73 l-52 -20 -15 23 c-16 24 -42 35 -66 27z"/>
<path d="M6548 4058 c-20 -7 -31 -20 -38 -46 -8 -25 -10 -205 -8 -545 l3 -509
24 -19 c29 -24 53 -24 82 0 24 19 24 23 27 220 2 111 5 201 7 201 2 0 25 -13
52 -30 236 -146 549 1 594 279 41 256 -193 491 -449 450 -52 -8 -136 -43 -179
-75 -21 -15 -23 -15 -23 -1 0 53 -46 90 -92 75z m457 -152 c103 -47 154 -127
155 -236 0 -153 -107 -259 -261 -260 -148 0 -259 108 -259 255 0 191 196 320
365 241z"/>
<path d="M9016 4059 c-75 -12 -167 -62 -220 -119 -187 -200 -128 -509 121
-632 62 -30 75 -33 158 -32 118 1 184 26 265 101 85 78 124 160 129 270 4 104
-17 174 -76 255 -87 117 -238 181 -377 157z m172 -153 c133 -69 189 -222 128
-351 -45 -95 -126 -144 -236 -145 -110 0 -207 62 -247 159 -20 47 -20 147 -1
192 30 70 103 136 178 160 38 13 142 4 178 -15z"/>
<path d="M11542 4059 c-76 -10 -171 -60 -226 -119 -188 -201 -128 -515 121
-633 61 -29 77 -32 158 -31 68 0 104 6 147 23 70 27 146 84 154 115 8 32 -11
65 -43 77 -22 8 -36 3 -96 -33 -59 -35 -81 -43 -134 -46 -35 -3 -84 1 -108 8
-56 16 -127 77 -154 133 -40 82 -59 77 282 77 361 0 353 -2 344 91 -9 107 -73
214 -161 273 -85 57 -182 79 -284 65z m174 -157 c39 -20 124 -105 124 -123 0
-5 -108 -9 -240 -9 -132 0 -240 4 -240 8 0 27 67 94 123 122 55 28 69 31 127
27 39 -2 82 -13 106 -25z"/>
<path d="M12452 4059 c-180 -29 -319 -186 -330 -370 -15 -262 234 -470 487
-405 148 38 242 136 181 191 -27 25 -62 22 -102 -8 -53 -41 -102 -57 -173 -57
-111 0 -186 45 -235 143 -34 69 -39 128 -14 199 32 95 127 167 230 176 64 5
115 -10 178 -56 27 -19 60 -34 73 -34 32 0 63 30 63 62 0 53 -126 142 -221
155 -24 4 -53 8 -64 9 -11 2 -44 -1 -73 -5z"/>
<path d="M6106 4038 c-14 -19 -16 -72 -16 -375 0 -340 1 -354 20 -373 27 -27
62 -25 88 3 22 23 22 28 22 373 0 392 0 394 -65 394 -24 0 -39 -7 -49 -22z"/>
<path d="M3082 3823 c-18 -7 -34 -52 -26 -75 3 -10 139 -118 302 -240 613
-456 554 -409 545 -437 -15 -49 -9 -163 11 -204 95 -193 367 -194 469 -2 30
56 30 173 0 231 -65 123 -208 177 -331 124 -30 -13 -56 -19 -64 -14 -12 7
-327 241 -696 517 -140 105 -167 117 -210 100z m1124 -733 c44 -22 74 -67 74
-112 0 -60 -69 -128 -130 -128 -63 0 -130 68 -130 133 0 66 55 120 129 126 8
0 34 -8 57 -19z"/>
<path d="M2730 3770 c-19 -19 -20 -33 -20 -337 l0 -318 -59 -17 c-82 -24 -152
-92 -177 -171 -10 -32 -23 -57 -29 -57 -7 0 -198 38 -426 84 -479 98 -446 92
-481 83 -50 -13 -51 -96 -1 -115 24 -9 718 -153 886 -184 48 -8 60 -15 72 -38
8 -15 35 -46 61 -69 26 -23 45 -43 43 -45 -4 -4 -91 -58 -639 -396 -113 -69
-324 -199 -468 -289 -145 -89 -266 -161 -268 -158 -2 2 77 190 176 418 99 227
180 426 180 441 0 53 -85 80 -114 36 -24 -37 -466 -1059 -466 -1077 0 -32 30
-61 61 -61 29 0 231 121 1134 680 77 47 261 160 408 251 296 180 356 227 384
294 22 54 -3 50 378 65 243 9 283 13 305 29 33 24 37 64 9 92 -24 24 -18 24
-525 3 l-151 -7 -12 33 c-16 48 -55 95 -106 130 l-45 31 0 324 c0 312 -1 326
-20 345 -11 11 -31 20 -45 20 -14 0 -34 -9 -45 -20z m78 -810 c126 -77 73
-263 -75 -263 -50 0 -85 21 -120 73 -79 116 73 264 195 190z"/>
<path d="M2295 3707 c-627 -283 -953 -432 -967 -445 -26 -22 -23 -77 4 -96 12
-9 30 -16 39 -16 23 0 1084 481 1109 503 23 19 27 79 8 95 -33 25 -56 20 -193
-41z"/>
</g>
</svg>
